<svg xmlns="http://www.w3.org/2000/svg" width="37" height="30" viewBox="0 0 37 30">
  <g fill="none" fill-rule="evenodd" stroke="#FFF" stroke-width=".8" transform="translate(.395 1.177)">
    <path d="M1.83721112,27.7014416 L33.5949399,27.7014416 L33.5949399,27.7014416 C34.6000982,27.7014416 35.4149399,26.8865998 35.4149399,25.8814416 L35.4149399,4.57873815 L35.4149399,4.57873815 C35.4149399,3.5735799 34.6000982,2.75873815 33.5949399,2.75873815 L13.768672,2.75873815 L13.768672,2.75873815 C13.2247343,2.75873815 12.7093081,2.51544877 12.3635858,2.09551505 L11.2422899,0.733526137 L11.2422899,0.733526137 C10.8965676,0.313592417 10.3811415,0.0703030446 9.83720374,0.0703030446 L1.83721112,0.0703030446 L1.83721112,0.0703030446 C0.832052874,0.0703030446 0.0172111188,0.8851448 0.0172111188,1.89030304 L0.0172111188,25.8814416 L0.0172111188,25.8814416 C0.0172111188,26.8865998 0.832052874,27.7014416 1.83721112,27.7014416 Z"/>
    <path d="M1.83721112,27.7014416 L33.5949399,27.7014416 L33.5949399,27.7014416 C34.6000982,27.7014416 35.4149399,26.8865998 35.4149399,25.8814416 L35.4149399,6.29634946 L35.4149399,6.29634946 C35.4149399,5.29119121 34.6000982,4.47634946 33.5949399,4.47634946 L1.83721112,4.47634946 L1.83721112,4.47634946 C0.832052874,4.47634946 0.0172111188,5.29119121 0.0172111188,6.29634946 L0.0172111188,25.8814416 L0.0172111188,25.8814416 C0.0172111188,26.8865998 0.832052874,27.7014416 1.83721112,27.7014416 Z"/>
  </g>
</svg>
