<svg xmlns="http://www.w3.org/2000/svg" width="220" height="74" viewBox="0 0 220 74">
  <g fill="none" fill-rule="evenodd" stroke="#FFF" stroke-width=".8" transform="translate(1 1)">
    <g stroke-linejoin="round" transform="translate(138.096 .334)">
      <polygon points="39.932 0 79.864 46.399 62.565 69.84 39.932 72.265 17.298 69.84 0 46.399" transform="rotate(-180 39.932 36.133)"/>
      <polygon points="39.932 25.867 79.864 72.265 0 72.265" transform="rotate(-180 39.932 49.066)"/>
      <polygon points="39.932 25.867 63.697 72.265 16.167 72.265" transform="rotate(-180 39.932 49.066)"/>
      <polygon points="39.932 25.867 63.697 0 16.167 0" transform="rotate(-180 39.932 12.933)"/>
      <polygon points="0 25.867 8.892 14.065 17.298 2.425 .97 2.425" transform="rotate(-180 8.65 14.146)"/>
      <polygon points="62.565 25.867 71.457 14.065 79.864 2.425 63.535 2.425" transform="matrix(1 0 0 -1 0 28.292)"/>
      <polygon points="38.8 23.442 39.932 0 16.167 25.867" transform="rotate(-180 28.05 12.933)"/>
      <polygon points="62.565 23.442 63.697 0 39.932 25.867" transform="matrix(1 0 0 -1 0 25.867)"/>
    </g>
    <path stroke-dasharray="3.2 4" stroke-linecap="round" stroke-opacity=".495" d="M83.9645729,36.6871094 L129.971529,36.6871094"/>
    <g transform="translate(.254 7.681)">
      <path d="M4.03333858,53.658722 L64.600055,53.658722 L64.600055,53.658722 C66.809194,53.658722 68.600055,51.867861 68.600055,49.658722 L68.600055,9.34377833 L68.600055,9.34377833 C68.600055,7.13463933 66.809194,5.34377833 64.600055,5.34377833 L26.8944445,5.34377833 L26.8944445,5.34377833 C25.698977,5.34377833 24.5661723,4.80907641 23.806343,3.88614516 L21.9191156,1.59381278 L21.9191156,1.59381278 C21.1592864,0.670881528 20.0264816,0.136179611 18.8310141,0.136179611 L4.03333858,0.136179611 L4.03333858,0.136179611 C1.82419958,0.136179611 0.0333385769,1.92704061 0.0333385769,4.13617961 L0.0333385769,49.658722 L0.0333385769,49.658722 C0.0333385769,51.867861 1.82419958,53.658722 4.03333858,53.658722 Z"/>
      <path d="M4.03333858,53.658722 L64.600055,53.658722 L64.600055,53.658722 C66.809194,53.658722 68.600055,51.867861 68.600055,49.658722 L68.600055,12.6708553 L68.600055,12.6708553 C68.600055,10.4617163 66.809194,8.67085529 64.600055,8.67085529 L4.03333858,8.67085529 L4.03333858,8.67085529 C1.82419958,8.67085529 0.0333385769,10.4617163 0.0333385769,12.6708553 L0.0333385769,49.658722 L0.0333385769,49.658722 C0.0333385769,51.867861 1.82419958,53.658722 4.03333858,53.658722 Z"/>
    </g>
  </g>
</svg>
